<svg width="129" height="48" viewBox="0 0 129 48" fill="none" xmlns="http://www.w3.org/2000/svg">
<path d="M14.5043 0.417418L18.6782 4.38262C20.2434 5.84349 21.0782 7.82611 21.0782 10.0174C21.0782 12.1044 21.913 14.087 23.3738 15.5479L23.8956 16.0696L28.6956 0.521756" fill="url(#paint0_linear_0_3430)"/>
<path d="M0.31311 14.2956L6.05224 14.087C8.1392 13.9826 10.2261 14.8174 11.687 16.2783C13.1479 17.7391 15.1305 18.4696 17.2175 18.4696H17.9479L10.2262 4.17391" fill="url(#paint1_linear_0_3430)"/>
<path d="M0.313047 34.1218L4.17391 29.9478C5.63478 28.3826 7.61739 27.4435 9.70435 27.4435C11.7913 27.4435 13.6696 26.5044 15.1304 25.0435L15.6522 24.5218L0 20.0348" fill="url(#paint2_linear_0_3430)"/>
<path d="M14.5043 47.8957L14.1912 42.1565C14.0869 40.0696 14.8173 37.9826 16.2782 36.4174C17.6347 34.9565 18.4695 32.8696 18.3651 30.887V30.1565L4.17383 38.1913" fill="url(#paint3_linear_0_3430)"/>
<path d="M34.3305 47.4783L30.0522 43.7218C28.487 42.3652 27.5479 40.3826 27.4435 38.1913C27.3392 36.1044 26.4001 34.2261 24.9392 32.7652L24.4174 32.2435L20.2435 48" fill="url(#paint4_linear_0_3430)"/>
<path d="M47.8956 32.9739L42.1565 33.3913C40.0695 33.6 37.9826 32.8696 36.4173 31.4087C34.8521 30.0522 32.8695 29.3217 30.7826 29.4261H30.0521L38.4 43.4087" fill="url(#paint5_linear_0_3430)"/>
<path d="M46.9567 13.2522L43.3045 17.6348C41.948 19.2 39.9654 20.2435 37.8784 20.3478C35.7915 20.4522 33.9132 21.3913 32.5567 22.9565L32.1393 23.4783L48.0001 27.2348" fill="url(#paint6_linear_0_3430)"/>
<path d="M32.2433 0L32.7651 5.73913C32.9738 7.82609 32.3477 9.91305 30.8868 11.5826C29.5303 13.1478 28.9042 15.1304 29.0086 17.2174L29.1129 17.9478L42.8868 9.28697" fill="url(#paint7_linear_0_3430)"/>
<path d="M65.517 32.5V15.0455H72.4034C73.7216 15.0455 74.8466 15.2812 75.7784 15.7528C76.7159 16.2187 77.429 16.8807 77.9176 17.7386C78.4119 18.5909 78.6591 19.5937 78.6591 20.7472C78.6591 21.9062 78.4091 22.9034 77.9091 23.7386C77.4091 24.5682 76.6847 25.2045 75.7358 25.6477C74.7926 26.0909 73.6506 26.3125 72.3097 26.3125H67.6989V23.3466H71.7131C72.4176 23.3466 73.0028 23.25 73.4688 23.0568C73.9347 22.8636 74.2813 22.5739 74.5085 22.1875C74.7415 21.8011 74.858 21.321 74.858 20.7472C74.858 20.1676 74.7415 19.679 74.5085 19.2812C74.2813 18.8835 73.9318 18.5824 73.4602 18.3778C72.9943 18.1676 72.4063 18.0625 71.696 18.0625H69.2074V32.5H65.517ZM74.9432 24.5568L79.2812 32.5H75.2074L70.9631 24.5568H74.9432ZM86.9538 32.7557C85.6072 32.7557 84.4482 32.483 83.4766 31.9375C82.5107 31.3864 81.7663 30.608 81.2436 29.6023C80.7209 28.5909 80.4595 27.3949 80.4595 26.0142C80.4595 24.6676 80.7209 23.4858 81.2436 22.4688C81.7663 21.4517 82.5021 20.6591 83.451 20.0909C84.4055 19.5227 85.5249 19.2386 86.8089 19.2386C87.6726 19.2386 88.4766 19.3778 89.2209 19.6562C89.9709 19.929 90.6243 20.3409 91.1811 20.892C91.7436 21.4432 92.1811 22.1364 92.4936 22.9716C92.8061 23.8011 92.9624 24.7727 92.9624 25.8864V26.8835H81.9084V24.6335H89.5447C89.5447 24.1108 89.4311 23.6477 89.2038 23.2443C88.9766 22.8409 88.6612 22.5256 88.2578 22.2983C87.8601 22.0653 87.397 21.9489 86.8686 21.9489C86.3175 21.9489 85.8288 22.0767 85.4027 22.3324C84.9822 22.5824 84.6527 22.9205 84.4141 23.3466C84.1754 23.767 84.0533 24.2358 84.0476 24.7528V26.892C84.0476 27.5398 84.1669 28.0994 84.4055 28.571C84.6499 29.0426 84.9936 29.4062 85.4368 29.6619C85.88 29.9176 86.4055 30.0455 87.0135 30.0455C87.4169 30.0455 87.7862 29.9886 88.1214 29.875C88.4567 29.7614 88.7436 29.5909 88.9822 29.3636C89.2209 29.1364 89.4027 28.858 89.5277 28.5284L92.8857 28.75C92.7152 29.5568 92.3658 30.2614 91.8374 30.8636C91.3146 31.4602 90.6385 31.9261 89.8089 32.2614C88.9851 32.5909 88.0334 32.7557 86.9538 32.7557ZM107.185 19.4091L102.608 32.5H98.517L93.9403 19.4091H97.7756L100.494 28.7756H100.631L103.341 19.4091H107.185ZM112.673 15.0455V32.5H109.043V15.0455H112.673ZM117.823 37.4091C117.363 37.4091 116.931 37.3722 116.528 37.2983C116.13 37.2301 115.8 37.142 115.539 37.0341L116.357 34.3239C116.783 34.4545 117.167 34.5256 117.508 34.5369C117.854 34.5483 118.153 34.4688 118.403 34.2983C118.658 34.1278 118.866 33.8381 119.025 33.429L119.238 32.875L114.542 19.4091H118.36L121.07 29.0227H121.207L123.942 19.4091H127.786L122.698 33.9148C122.454 34.6193 122.121 35.233 121.701 35.7557C121.286 36.2841 120.761 36.6903 120.124 36.9744C119.488 37.2642 118.721 37.4091 117.823 37.4091Z" fill="white"/>
<defs>
<linearGradient id="paint0_linear_0_3430" x1="21.5999" y1="0.417418" x2="21.5999" y2="16.0696" gradientUnits="userSpaceOnUse">
<stop stop-color="#7039F0"/>
<stop offset="0.811925" stop-color="#A657F8"/>
</linearGradient>
<linearGradient id="paint1_linear_0_3430" x1="9.1305" y1="4.17391" x2="9.1305" y2="18.4696" gradientUnits="userSpaceOnUse">
<stop stop-color="#7039F0"/>
<stop offset="0.811925" stop-color="#A657F8"/>
</linearGradient>
<linearGradient id="paint2_linear_0_3430" x1="7.82609" y1="20.0348" x2="7.82609" y2="34.1218" gradientUnits="userSpaceOnUse">
<stop stop-color="#7039F0"/>
<stop offset="0.811925" stop-color="#A657F8"/>
</linearGradient>
<linearGradient id="paint3_linear_0_3430" x1="11.2739" y1="30.1565" x2="11.2739" y2="47.8957" gradientUnits="userSpaceOnUse">
<stop stop-color="#7039F0"/>
<stop offset="0.811925" stop-color="#A657F8"/>
</linearGradient>
<linearGradient id="paint4_linear_0_3430" x1="27.287" y1="32.2435" x2="27.287" y2="48" gradientUnits="userSpaceOnUse">
<stop stop-color="#7039F0"/>
<stop offset="0.811925" stop-color="#A657F8"/>
</linearGradient>
<linearGradient id="paint5_linear_0_3430" x1="38.9739" y1="29.4162" x2="38.9739" y2="43.4087" gradientUnits="userSpaceOnUse">
<stop stop-color="#7039F0"/>
<stop offset="0.811925" stop-color="#A657F8"/>
</linearGradient>
<linearGradient id="paint6_linear_0_3430" x1="40.0697" y1="13.2522" x2="40.0697" y2="27.2348" gradientUnits="userSpaceOnUse">
<stop stop-color="#7039F0"/>
<stop offset="0.811925" stop-color="#A657F8"/>
</linearGradient>
<linearGradient id="paint7_linear_0_3430" x1="35.9421" y1="0" x2="35.9421" y2="17.9478" gradientUnits="userSpaceOnUse">
<stop stop-color="#7039F0"/>
<stop offset="0.811925" stop-color="#A657F8"/>
</linearGradient>
</defs>
</svg>
